<?xml version="1.0" encoding="utf-8"?>
<!-- Generator: Adobe Illustrator 16.0.0, SVG Export Plug-In . SVG Version: 6.00 Build 0)  -->
<!DOCTYPE svg PUBLIC "-//W3C//DTD SVG 1.1//EN" "http://www.w3.org/Graphics/SVG/1.1/DTD/svg11.dtd">
<svg version="1.1" id="外形" xmlns="http://www.w3.org/2000/svg" xmlns:xlink="http://www.w3.org/1999/xlink" x="0px" y="0px"
	 width="70.866px" height="102.047px" viewBox="0 0 70.866 102.047" enable-background="new 0 0 70.866 102.047"
	 xml:space="preserve">
<g>
	<path fill="#1B56A6" d="M70.866,99.212c0,1.56-1.275,2.835-2.835,2.835H2.834c-1.559,0-2.834-1.275-2.834-2.835V2.834
		C0,1.275,1.275,0,2.834,0h65.196c1.56,0,2.835,1.275,2.835,2.834V99.212z"/>
</g>
<g id="WiFi2">
	<rect x="16.082" fill="#003F95" width="39.178" height="44.085"/>
	<text transform="matrix(1 0 0 1 55.6704 14.5786)" fill="#FFFFFF" font-family="'OCRA'" font-size="3.5">Rev.2</text>
</g>
<g id="WiFiChip">
	<rect x="16.082" y="15.329" fill="#CCCCCC" width="39.178" height="29.313"/>
</g>
<g id="Button">
	<rect x="9.348" y="91.246" fill="#FFFFFF" width="13.614" height="8.5"/>
	<g>
		<path fill="#F6F8D9" d="M21.788,96.581c0,1.188-0.972,2.16-2.16,2.16h-7.092c-1.188,0-2.16-0.972-2.16-2.16v-2.175
			c0-1.188,0.972-2.16,2.16-2.16h7.092c1.188,0,2.16,0.972,2.16,2.16V96.581z"/>
		<path fill="none" stroke="#B5B5B6" stroke-width="0.2835" stroke-miterlimit="10" d="M21.788,96.581c0,1.188-0.972,2.16-2.16,2.16
			h-7.092c-1.188,0-2.16-0.972-2.16-2.16v-2.175c0-1.188,0.972-2.16,2.16-2.16h7.092c1.188,0,2.16,0.972,2.16,2.16V96.581z"/>
	</g>
	<rect x="46.292" y="91.245" fill="#FFFFFF" width="13.613" height="8.5"/>
	<g>
		<path fill="#FAF8CB" d="M58.424,96.581c0,1.188-0.972,2.16-2.16,2.16h-6.332c-1.188,0-2.16-0.972-2.16-2.16v-2.175
			c0-1.188,0.972-2.16,2.16-2.16h6.332c1.188,0,2.16,0.972,2.16,2.16V96.581z"/>
		<path fill="none" stroke="#B5B5B6" stroke-width="0.2835" stroke-miterlimit="10" d="M58.424,96.581c0,1.188-0.972,2.16-2.16,2.16
			h-6.332c-1.188,0-2.16-0.972-2.16-2.16v-2.175c0-1.188,0.972-2.16,2.16-2.16h6.332c1.188,0,2.16,0.972,2.16,2.16V96.581z"/>
	</g>
</g>
<g id="USB">
	<g>
		<path fill="#CCCCCC" d="M44.462,100.446c0,0.936-0.766,1.701-1.701,1.701H27.163c-0.936,0-1.701-0.766-1.701-1.701V87.543
			c0-0.936,0.765-1.701,1.701-1.701h15.599c0.936,0,1.701,0.766,1.701,1.701V100.446z"/>
	</g>
</g>
<g id="シリアル">
	<rect x="27.114" y="68.622" width="27.812" height="9.641"/>
</g>
<g id="string">
	<text transform="matrix(1 0 0 1 20.4736 30.6162)" font-family="'OCRA'" font-size="7.0866">CE1177</text>
</g>
<g id="connector">
	<g>
		<g>
			<circle fill="#EFEFEF" cx="3.033" cy="22.841" r="1.8"/>
			<circle fill="#EFEFEF" cx="3.033" cy="30.042" r="1.8"/>
			<circle fill="#EFEFEF" cx="3.033" cy="37.242" r="1.8"/>
			<circle fill="#EFEFEF" cx="3.033" cy="44.442" r="1.8"/>
			<circle fill="#EFEFEF" cx="3.033" cy="51.641" r="1.8"/>
			<circle fill="#EFEFEF" cx="3.033" cy="58.842" r="1.8"/>
			<circle fill="#EFEFEF" cx="3.033" cy="66.042" r="1.8"/>
			<circle fill="#EFEFEF" cx="3.033" cy="73.243" r="1.8"/>
			<circle fill="#EFEFEF" cx="3.033" cy="80.442" r="1.8"/>
			<circle fill="#EFEFEF" cx="3.033" cy="87.643" r="1.8"/>
		</g>
		<g>
			<circle fill="#EFEFEF" cx="67.833" cy="22.841" r="1.8"/>
			<circle fill="#EFEFEF" cx="67.833" cy="30.042" r="1.8"/>
			<circle fill="#EFEFEF" cx="67.833" cy="37.242" r="1.8"/>
			<circle fill="#EFEFEF" cx="67.833" cy="44.442" r="1.8"/>
			<circle fill="#EFEFEF" cx="67.833" cy="51.641" r="1.8"/>
			<circle fill="#EFEFEF" cx="67.833" cy="58.842" r="1.8"/>
			<circle fill="#EFEFEF" cx="67.833" cy="66.042" r="1.8"/>
			<circle fill="#EFEFEF" cx="67.833" cy="73.243" r="1.8"/>
			<circle fill="#EFEFEF" cx="67.833" cy="80.442" r="1.8"/>
			<circle fill="#EFEFEF" cx="67.833" cy="87.643" r="1.8"/>
		</g>
	</g>
</g>
<g id="name">
	<text transform="matrix(1 0 0 1 6.8457 24.1304)" fill="#FFFFFF" font-family="'OCRA'" font-size="3.5">3v3</text>
	<text transform="matrix(1 0 0 1 8.0967 31.3394)" fill="#FFFFFF" font-family="'OCRA'" font-size="3.5">EN</text>
	<text transform="matrix(1 0 0 1 8.0967 38.5479)" fill="#FFFFFF" font-family="'OCRA'" font-size="3.5">14</text>
	<text transform="matrix(1 0 0 1 8.0967 45.7568)" fill="#FFFFFF" font-family="'OCRA'" font-size="3.5">12</text>
	<text transform="matrix(1 0 0 1 8.0967 52.9653)" fill="#FFFFFF" font-family="'OCRA'" font-size="3.5">13</text>
	<text transform="matrix(1 0 0 1 8.0967 60.1743)" fill="#FFFFFF" font-family="'OCRA'" font-size="3.5">15</text>
	<text transform="matrix(1 0 0 1 9.3481 67.3823)" fill="#FFFFFF" font-family="'OCRA'" font-size="3.5">2</text>
	<text transform="matrix(1 0 0 1 9.3481 74.5913)" fill="#FFFFFF" font-family="'OCRA'" font-size="3.5">0</text>
	<text transform="matrix(1 0 0 1 6.8457 81.7993)" fill="#FFFFFF" font-family="'OCRA'" font-size="3.5">GND</text>
	<text transform="matrix(1 0 0 1 6.8457 89.0083)" fill="#FFFFFF" font-family="'OCRA'" font-size="3.5">VIN</text>
	<text transform="matrix(1 0 0 1 57.7964 24.1304)" fill="#FFFFFF" font-family="'OCRA'" font-size="3.5">GND</text>
	<text transform="matrix(1 0 0 1 59.0474 31.3389)" fill="#FFFFFF" font-family="'OCRA'" font-size="3.5">16</text>
	<text transform="matrix(1 0 0 1 56.5454 38.5479)" fill="#FFFFFF" font-family="'OCRA'" font-size="3.5">TOUT</text>
	<text transform="matrix(1 0 0 1 57.7964 45.7568)" fill="#FFFFFF" font-family="'OCRA'" font-size="3.5">RST</text>
	<text transform="matrix(1 0 0 1 60.2983 52.9653)" fill="#FFFFFF" font-family="'OCRA'" font-size="3.5">5</text>
	<text transform="matrix(1 0 0 1 57.7974 60.1743)" fill="#FFFFFF" font-family="'OCRA'" font-size="3.5">TXD</text>
	<text transform="matrix(1 0 0 1 57.7964 67.3823)" fill="#FFFFFF" font-family="'OCRA'" font-size="3.5">RXD</text>
	<text transform="matrix(1 0 0 1 60.2983 74.5903)" fill="#FFFFFF" font-family="'OCRA'" font-size="3.5">4</text>
	<text transform="matrix(1 0 0 1 57.7974 81.7993)" fill="#FFFFFF" font-family="'OCRA'" font-size="3.5">GND</text>
	<text transform="matrix(1 0 0 1 54.9263 89.0083)" fill="#FFFFFF" font-family="'OCRA'" font-size="3.5">VOUT</text>
</g>
</svg>
