<?xml version="1.0" encoding="utf-8"?>
<!-- Generator: Adobe Illustrator 16.0.0, SVG Export Plug-In . SVG Version: 6.00 Build 0)  -->
<!DOCTYPE svg PUBLIC "-//W3C//DTD SVG 1.1//EN" "http://www.w3.org/Graphics/SVG/1.1/DTD/svg11.dtd">
<svg version="1.1" id="レイヤー_1" xmlns="http://www.w3.org/2000/svg" xmlns:xlink="http://www.w3.org/1999/xlink" x="0px"
	 y="0px" width="58.11px" height="35.433px" viewBox="0 0 58.11 35.433" enable-background="new 0 0 58.11 35.433"
	 xml:space="preserve">
<g id="base">
	<g>
		<path fill="#19529A" d="M58.11,32.598c0,1.56-1.275,2.835-2.835,2.835H2.834C1.275,35.433,0,34.157,0,32.598V2.834
			C0,1.275,1.275,0,2.834,0h52.44c1.56,0,2.835,1.275,2.835,2.834V32.598z"/>
	</g>
</g>
<g id="hole">
	<g>
		<circle fill="#EFEFEF" cx="3.853" cy="29.943" r="1.8"/>
		<circle fill="#EFEFEF" cx="11.053" cy="29.943" r="1.8"/>
		<circle fill="#EFEFEF" cx="18.254" cy="29.942" r="1.8"/>
		<circle fill="#EFEFEF" cx="25.454" cy="29.943" r="1.8"/>
		<circle fill="#EFEFEF" cx="32.654" cy="29.943" r="1.8"/>
		<circle fill="#EFEFEF" cx="39.854" cy="29.943" r="1.801"/>
		<circle fill="#EFEFEF" cx="47.055" cy="29.942" r="1.8"/>
		<circle fill="#EFEFEF" cx="54.255" cy="29.942" r="1.801"/>
	</g>
</g>
<g id="レイヤー_4">
	<rect x="23.161" y="12.081" fill="#040000" width="11.292" height="9.396"/>
</g>
<g id="レイヤー_5">
	<rect x="37.177" y="12.167" fill="#040000" width="4.213" height="9.31"/>
	<rect x="44.224" y="12.124" fill="#040000" width="4.213" height="9.31"/>
	<rect x="51.272" y="12.167" fill="#040000" width="4.213" height="9.31"/>
	<rect x="1.899" y="12.189" fill="#BCBBBB" width="4.213" height="9.309"/>
	<rect x="8.947" y="12.146" fill="#040000" width="4.213" height="9.309"/>
	<rect x="15.995" y="12.189" fill="#040000" width="4.213" height="9.309"/>
</g>
<g id="レイヤー_6">
	<circle fill="none" stroke="#D5D752" stroke-miterlimit="10" cx="6.075" cy="5.747" r="4.42"/>
	<circle fill="none" stroke="#D5D752" stroke-miterlimit="10" cx="51.958" cy="5.747" r="4.42"/>
</g>
<g id="レイヤー_7">
	<text transform="matrix(1 0 0 1 20.6294 8.0635)" fill="#FFFFFF" font-family="'OCRA'" font-size="4.9678">MCP9808</text>
	<text transform="matrix(1 0 0 1 7.3296 34.8506)" fill="#FFFFFF" font-family="'OCRA'" font-size="3.5">GND</text>
	<text transform="matrix(1 0 0 1 0 27.6064)" fill="#FFFFFF" font-family="'OCRA'" font-size="3.5">VDD</text>
	<text transform="matrix(1 0 0 1 14.5928 27.6064)" fill="#FFFFFF" font-family="'OCRA'" font-size="3.5">SCL</text>
	<text transform="matrix(1 0 0 1 21.8638 34.8506)" fill="#FFFFFF" font-family="'OCRA'" font-size="3.5">SDA</text>
	<text transform="matrix(1 0 0 1 26.104 27.6064)" fill="#FFFFFF" font-family="'OCRA'" font-size="3.5">Alert</text>
	<text transform="matrix(1 0 0 1 37.4419 34.8506)" fill="#FFFFFF" font-family="'OCRA'" font-size="3.5">A0</text>
	<text transform="matrix(1 0 0 1 44.4888 27.6064)" fill="#FFFFFF" font-family="'OCRA'" font-size="3.5">A1</text>
	<text transform="matrix(1 0 0 1 52.02 27.6064)" fill="#FFFFFF" font-family="'OCRA'" font-size="3.5">A2</text>
	<polygon fill="#FFFFFF" points="16.488,7.773 14.454,6.313 12.098,7.162 12.858,4.776 11.324,2.798 13.827,2.783 15.234,0.712 
		16.022,3.089 18.426,3.787 16.41,5.271 	"/>
</g>
</svg>
