<?xml version="1.0" encoding="utf-8"?>
<!-- Generator: Adobe Illustrator 16.0.0, SVG Export Plug-In . SVG Version: 6.00 Build 0)  -->
<!DOCTYPE svg PUBLIC "-//W3C//DTD SVG 1.1//EN" "http://www.w3.org/Graphics/SVG/1.1/DTD/svg11.dtd">
<svg version="1.1" id="レイヤー_1" xmlns="http://www.w3.org/2000/svg" xmlns:xlink="http://www.w3.org/1999/xlink" x="0px"
	 y="0px" width="56.693px" height="48.189px" viewBox="-2.835 0 56.693 48.189" enable-background="new -2.835 0 56.693 48.189"
	 xml:space="preserve">
<g id="base">
	<g>
		<path fill="#19529A" d="M53.858,45.353c0,1.561-1.699,2.836-3.779,2.836H0.944c-2.08,0-3.779-1.275-3.779-2.836V2.833
			c0-1.559,1.7-2.834,3.779-2.834h49.133c2.08,0,3.779,1.274,3.779,2.834v42.52H53.858z"/>
	</g>
</g>
<rect x="19.51" y="17.317" width="9.731" height="9.982"/>
<rect x="0.267" y="20.506" fill="#040000" width="8.423" height="6.181"/>
<rect x="12.959" y="17.995" fill="#BCBBBB" width="3.612" height="5.602"/>
<rect x="2.868" y="15.51" fill="#BCBBBB" width="5.601" height="3.613"/>
<rect x="47.063" y="24.872" width="3.614" height="5.603"/>
<rect x="47.063" y="17.995" width="3.614" height="5.603"/>
<circle fill="none" stroke="#D5D752" stroke-miterlimit="10" cx="2.91" cy="5.525" r="4.42"/>
<circle fill="none" stroke="#D5D752" stroke-miterlimit="10" cx="47.995" cy="5.525" r="4.42"/>
<text transform="matrix(-4.371139e-08 -1 1 -4.371139e-08 1.4211 38.2273)" fill="#FFFFFF" font-family="'OCRA'" font-size="3.5">VIN</text>
<text transform="matrix(1 0 0 1 3.7644 47.1023)" fill="#FFFFFF" font-family="'OCRA'" font-size="3.5">GND</text>
<text transform="matrix(1 0 0 1 32.8132 47.1023)" fill="#FFFFFF" font-family="'OCRA'" font-size="3.5">SCL</text>
<text transform="matrix(1 0 0 1 40.2029 38.2273)" fill="#FFFFFF" font-family="'OCRA'" font-size="3.5">SDA</text>
<text transform="matrix(1 0 0 1 26.6453 38.2273)" fill="#FFFFFF" font-family="'OCRA'" font-size="3.5">I1</text>
<text transform="matrix(1 0 0 1 11.1394 38.2273)" fill="#FFFFFF" font-family="'OCRA'" font-size="3.5">3VO</text>
<text transform="matrix(1 0 0 1 19.5095 47.1023)" fill="#FFFFFF" font-family="'OCRA'" font-size="3.5">I2</text>
<text transform="matrix(1 0 0 1 11.7351 9.9446)" fill="#FFFFFF" font-family="'OCRA'" font-size="4">MMA8451</text>
<rect x="2.91" y="30.959" fill="#BCBBBB" width="5.601" height="3.613"/>
<polygon fill="#FFFFFF" points="24.323,6.542 22.727,5.181 20.724,5.802 21.499,3.774 20.348,1.989 22.423,2.096 23.715,0.371 
	24.222,2.466 26.172,3.185 24.41,4.372 "/>
<g>
	<circle fill="#EFEFEF" cx="7.468" cy="41.655" r="1.8"/>
	<circle fill="#EFEFEF" cx="14.668" cy="41.655" r="1.8"/>
	<circle fill="#EFEFEF" cx="21.868" cy="41.655" r="1.8"/>
	<circle fill="#EFEFEF" cx="29.068" cy="41.655" r="1.8"/>
	<circle fill="#EFEFEF" cx="36.268" cy="41.655" r="1.8"/>
	<circle fill="#EFEFEF" cx="43.469" cy="41.656" r="1.801"/>
	<circle fill="#EFEFEF" cx="50.671" cy="41.656" r="1.801"/>
	<circle fill="#EFEFEF" cx="0.267" cy="41.656" r="1.801"/>
</g>
<text transform="matrix(1 0 0 1 49.6882 47.1023)" fill="#FFFFFF" font-family="'OCRA'" font-size="3.5">A</text>
<rect x="32.661" y="24.497" width="3.614" height="5.603"/>
<rect x="32.661" y="17.705" width="3.614" height="5.603"/>
<rect x="39.75" y="26.414" width="3.836" height="7.236"/>
<rect x="39.75" y="15.505" width="3.836" height="7.236"/>
<rect x="16.709" y="11.715" fill="#BCBBBB" width="5.601" height="3.614"/>
<rect x="12.959" y="28.225" width="5.603" height="3.614"/>
<g>
	<circle fill="none" stroke="#FFFFFF" stroke-width="0.5" stroke-miterlimit="10" cx="38.641" cy="4.714" r="3.488"/>
	<circle fill="none" stroke="#FFFFFF" stroke-width="0.5" stroke-miterlimit="10" cx="38.641" cy="4.714" r="2.04"/>
	<g>
		<line fill="none" stroke="#FFFFFF" stroke-width="0.5" stroke-miterlimit="10" x1="30.922" y1="4.714" x2="35.257" y2="4.714"/>
		<line fill="none" stroke="#FFFFFF" stroke-width="0.5" stroke-miterlimit="10" x1="30.869" y1="4.82" x2="31.751" y2="3.421"/>
		<line fill="none" stroke="#FFFFFF" stroke-width="0.5" stroke-miterlimit="10" x1="31.751" y1="6.113" x2="30.869" y2="4.714"/>
	</g>
	<g>
		<line fill="none" stroke="#FFFFFF" stroke-width="0.5" stroke-miterlimit="10" x1="38.589" y1="11.813" x2="38.589" y2="8.22"/>
		<line fill="none" stroke="#FFFFFF" stroke-width="0.5" stroke-miterlimit="10" x1="38.694" y1="11.858" x2="37.296" y2="11.126"/>
		<line fill="none" stroke="#FFFFFF" stroke-width="0.5" stroke-miterlimit="10" x1="39.987" y1="11.126" x2="38.589" y2="11.858"/>
	</g>
</g>
<text transform="matrix(1 0 0 1 32.2712 3.4207)" fill="#FFFFFF" font-family="'OCRA'" font-size="3.5">X</text>
<text transform="matrix(1 0 0 1 41.1052 11.1262)" fill="#FFFFFF" font-family="'OCRA'" font-size="3.5">Y</text>
<text transform="matrix(1 0 0 1 41.6677 2.6736)" fill="#FFFFFF" font-family="'OCRA'" font-size="3.5">Z</text>
</svg>
