<?xml version="1.0" encoding="utf-8"?>
<!-- Generator: Adobe Illustrator 16.0.0, SVG Export Plug-In . SVG Version: 6.00 Build 0)  -->
<!DOCTYPE svg PUBLIC "-//W3C//DTD SVG 1.1//EN" "http://www.w3.org/Graphics/SVG/1.1/DTD/svg11.dtd">
<svg version="1.1" id="レイヤー_1" xmlns="http://www.w3.org/2000/svg" xmlns:xlink="http://www.w3.org/1999/xlink" x="0px"
	 y="0px" width="51.023px" height="48.189px" viewBox="0 0 51.023 48.189" enable-background="new 0 0 51.023 48.189"
	 xml:space="preserve">
<g id="base">
	<g>
		<path fill="#19529A" d="M51.024,45.353c0,1.561-1.529,2.836-3.401,2.836H3.401C1.529,48.189,0,46.914,0,45.353V2.833
			c0-1.559,1.53-2.834,3.401-2.834h44.221c1.872,0,3.401,1.274,3.401,2.834L51.024,45.353L51.024,45.353z"/>
	</g>
</g>
<rect x="20.604" y="17.317" fill="#BCBBBB" width="9.731" height="14.564"/>
<rect x="2.731" y="18.538" fill="#040000" width="5.959" height="5.51"/>
<rect x="12.959" y="17.995" fill="#BCBBBB" width="3.612" height="5.602"/>
<rect x="12.958" y="25.357" fill="#BCBBBB" width="3.613" height="5.602"/>
<rect x="2.91" y="13.522" fill="#BCBBBB" width="5.601" height="3.613"/>
<rect x="18.209" y="11.271" width="5.603" height="3.612"/>
<rect x="25.469" y="11.271" width="5.603" height="3.612"/>
<rect x="44.999" y="21.293" width="3.614" height="5.603"/>
<rect x="44.999" y="14.334" width="3.614" height="5.603"/>
<g id="hole">
	<circle fill="none" stroke="#D5D752" stroke-miterlimit="10" cx="5.711" cy="5.525" r="4.42"/>
	<circle fill="none" stroke="#D5D752" stroke-miterlimit="10" cx="45.314" cy="5.525" r="4.42"/>
</g>
<text transform="matrix(1 0 0 1 14.7654 4.4905)" fill="#FFFFFF" font-family="'OCRA'" font-size="3.5">Altimeter</text>
<text transform="matrix(1 0 0 1 -2.441406e-04 38.2273)" fill="#FFFFFF" font-family="'OCRA'" font-size="3.5">VIN</text>
<text transform="matrix(1 0 0 1 7.6394 47.1023)" fill="#FFFFFF" font-family="'OCRA'" font-size="3.5">GND</text>
<text transform="matrix(1 0 0 1 36.3132 47.1023)" fill="#FFFFFF" font-family="'OCRA'" font-size="3.5">SCL</text>
<text transform="matrix(1 0 0 1 42.8279 38.2273)" fill="#FFFFFF" font-family="'OCRA'" font-size="3.5">SDA</text>
<text transform="matrix(1 0 0 1 28.2703 38.2273)" fill="#FFFFFF" font-family="'OCRA'" font-size="3.5">INT1</text>
<g id="pin">
	<circle fill="#EFEFEF" cx="3.91" cy="41.655" r="1.8"/>
	<circle fill="#EFEFEF" cx="11.11" cy="41.655" r="1.8"/>
	<circle fill="#EFEFEF" cx="18.311" cy="41.655" r="1.8"/>
	<circle fill="#EFEFEF" cx="25.51" cy="41.655" r="1.8"/>
	<circle fill="#EFEFEF" cx="32.711" cy="41.655" r="1.8"/>
	<circle fill="#EFEFEF" cx="39.911" cy="41.656" r="1.801"/>
	<circle fill="#EFEFEF" cx="47.113" cy="41.656" r="1.801"/>
</g>
<text transform="matrix(1 0 0 1 14.7644 38.2273)" fill="#FFFFFF" font-family="'OCRA'" font-size="3.5">3VO</text>
<text transform="matrix(1 0 0 1 21.0095 47.1023)" fill="#FFFFFF" font-family="'OCRA'" font-size="3.5">INT2</text>
<text transform="matrix(1 0 0 1 11.7351 8.8186)" fill="#FFFFFF" font-family="'OCRA'" font-size="4">MPL3115A2</text>
<rect x="2.91" y="25.492" fill="#BCBBBB" width="5.601" height="3.613"/>
<rect x="36.285" y="22.287" width="5.603" height="3.614"/>
<rect x="36.285" y="15.509" width="5.602" height="3.614"/>
</svg>
