<?xml version="1.0" encoding="utf-8"?>
<!-- Generator: Adobe Illustrator 16.0.0, SVG Export Plug-In . SVG Version: 6.00 Build 0)  -->
<!DOCTYPE svg PUBLIC "-//W3C//DTD SVG 1.1//EN" "http://www.w3.org/Graphics/SVG/1.1/DTD/svg11.dtd">
<svg version="1.1" id="レイヤー_1" xmlns="http://www.w3.org/2000/svg" xmlns:xlink="http://www.w3.org/1999/xlink" x="0px"
	 y="0px" width="42.52px" height="48.19px" viewBox="0 0 42.52 48.19" enable-background="new 0 0 42.52 48.19"
	 xml:space="preserve">
<g id="base">
	<g>
		<path fill="#19529A" d="M42.52,45.354c0,1.56-1.275,2.835-2.835,2.835H2.834C1.275,48.189,0,46.914,0,45.354V2.835
			c0-1.559,1.275-2.834,2.834-2.834h36.851c1.56,0,2.835,1.275,2.835,2.834V45.354z"/>
	</g>
</g>
<g id="hole">
	<g>
		<circle fill="#EFEFEF" cx="3.259" cy="45.007" r="1.8"/>
		<circle fill="#EFEFEF" cx="10.459" cy="45.007" r="1.8"/>
		<circle fill="#EFEFEF" cx="17.66" cy="45.006" r="1.8"/>
		<circle fill="#EFEFEF" cx="24.859" cy="45.007" r="1.8"/>
		<circle fill="#EFEFEF" cx="32.061" cy="45.007" r="1.8"/>
		<circle fill="#EFEFEF" cx="39.261" cy="45.007" r="1.801"/>
	</g>
</g>
<g id="レイヤー_4">
	<rect x="16.179" y="16.46" fill="#040000" width="10.161" height="8.673"/>
	<rect x="2.7" y="15.829" fill="#040000" width="5.959" height="5.51"/>
</g>
<g id="レイヤー_5">
	<rect x="11.115" y="12.125" fill="#BCBBBB" width="3.613" height="5.601"/>
	<rect x="11.115" y="19.532" fill="#BCBBBB" width="3.614" height="5.601"/>
	<rect x="2.879" y="24.501" fill="#BCBBBB" width="5.601" height="3.614"/>
	<rect x="17.877" y="28.115" fill="#BCBBBB" width="5.602" height="3.614"/>
	<rect x="25.286" y="28.115" fill="#BCBBBB" width="5.602" height="3.614"/>
	<rect x="30.254" y="19.531" fill="#BCBBBB" width="3.614" height="5.602"/>
	<rect x="34.962" y="19.532" fill="#BCBBBB" width="3.614" height="5.602"/>
</g>
<g id="レイヤー_6">
	<circle fill="none" stroke="#D5D752" stroke-miterlimit="10" cx="5.679" cy="5.525" r="4.42"/>
	<circle fill="none" stroke="#D5D752" stroke-miterlimit="10" cx="36.77" cy="5.525" r="4.42"/>
</g>
<g id="レイヤー_7">
	<text transform="matrix(1 0 0 1 11.1147 7.2412)" fill="#FFFFFF" font-family="'OCRA'" font-size="3.5">VCNL4010</text>
	<text transform="matrix(-4.371139e-08 -1 1 -4.371139e-08 4.6074 42.1895)" fill="#FFFFFF" font-family="'OCRA'" font-size="3.5">VIN</text>
	<text transform="matrix(-4.371139e-08 -1 1 -4.371139e-08 11.8081 42.1895)" fill="#FFFFFF" font-family="'OCRA'" font-size="3.5">3Vo</text>
	<text transform="matrix(-4.371139e-08 -1 1 -4.371139e-08 19.0083 42.1895)" fill="#FFFFFF" font-family="'OCRA'" font-size="3.5">GND</text>
	<text transform="matrix(-4.371139e-08 -1 1 -4.371139e-08 26.209 42.1895)" fill="#FFFFFF" font-family="'OCRA'" font-size="3.5">SCL</text>
	<text transform="matrix(-4.371139e-08 -1 1 -4.371139e-08 33.4102 42.1895)" fill="#FFFFFF" font-family="'OCRA'" font-size="3.5">SDA</text>
	<text transform="matrix(-4.371139e-08 -1 1 -4.371139e-08 40.6094 42.1895)" fill="#FFFFFF" font-family="'OCRA'" font-size="3.5">INT</text>
</g>
</svg>
